<svg xmlns="http://www.w3.org/2000/svg" width="12.232" height="16.5" fill="#3a3932" stroke="#3a3932" stroke-miterlimit="10" stroke-width=".5" xmlns:v="https://vecta.io/nano"><path d="M6.058 8.554a.42.42 0 0 1-.142-.025l-3.73-1.333c-.168-.061-.28-.221-.279-.4V.67a.42.42 0 0 1 .421-.421h7.459a.42.42 0 0 1 .421.421v6.126c.001.179-.111.339-.279.4l-3.73 1.333a.42.42 0 0 1-.141.025zM2.749 6.503l3.309 1.183 3.309-1.183V1.095H2.749z"/><path d="M9.787 16.251H2.328a.42.42 0 0 1-.421-.421V9.704a.42.42 0 0 1 .279-.4l3.73-1.335a.42.42 0 0 1 .284 0l3.73 1.335a.42.42 0 0 1 .279.4v6.128a.42.42 0 0 1-.422.419zm-7.039-.842h6.618v-5.408L6.057 8.816l-3.309 1.185zm8.813-14.317H.788A.42.42 0 0 1 .423.46.42.42 0 0 1 .788.25h10.773a.42.42 0 0 1 .365.632.42.42 0 0 1-.365.21z"/><path d="M11.442 16.249H.671a.42.42 0 0 1-.365-.632.42.42 0 0 1 .365-.21h10.772a.42.42 0 0 1 .365.632.42.42 0 0 1-.365.21z"/></svg>